Coordinates
version=1
nRows=8
nColumns=40
inDegrees=yes

Units are S.I. units (second, meters, Newtons, ...)
If the header above contains a line with 'inDegrees', this indicates whether rotational values are in degrees (yes) or radians (no).

endheader
time	pelvis_tilt	pelvis_list	pelvis_rotation	pelvis_tx	pelvis_ty	pelvis_tz	hip_flexion_r	hip_adduction_r	hip_rotation_r	knee_angle_r	knee_angle_r_beta	ankle_angle_r	subtalar_angle_r	mtp_angle_r	hip_flexion_l	hip_adduction_l	hip_rotation_l	knee_angle_l	knee_angle_l_beta	ankle_angle_l	subtalar_angle_l	mtp_angle_l	lumbar_extension	lumbar_bending	lumbar_rotation	arm_flex_r	arm_add_r	arm_rot_r	elbow_flex_r	pro_sup_r	wrist_flex_r	wrist_dev_r	arm_flex_l	arm_add_l	arm_rot_l	elbow_flex_l	pro_sup_l	wrist_flex_l	wrist_dev_l
      3.65000000	    -15.92906088	      6.67246017	     -0.79675428	     -0.27115486	      0.85533951	     -0.91333837	     49.01541434	    -23.92051444	     -9.64641420	     61.60960426	      1.07529045	     15.37574369	      0.00000000	      0.00000000	     42.89191891	    -14.62696878	    -17.72239281	     55.81984667	      0.97424011	     15.96165399	      0.00000000	      0.00000000	    -17.40717245	     -8.75156268	     -3.26459338	    -31.10950992	    -35.97139613	     11.50658113	     95.86550249	     45.01061980	      0.00000000	      0.00000000	    -42.69584266	    -37.75628164	     -5.72931084	     73.71540956	     45.01061980	      0.00000000	      0.00000000
      3.65500000	    -14.98673364	      6.52782665	     -0.61443878	     -0.26535656	      0.86981601	     -0.91346212	     45.84733967	    -23.93134155	    -11.02356847	     58.61905151	      1.02309545	     13.64313860	      0.00000000	      0.00000000	     40.05021412	    -14.08430423	    -17.85884098	     52.26000208	      0.91210910	     14.48191415	      0.00000000	      0.00000000	    -17.12210998	     -8.52729410	     -3.37848875	    -31.62122055	    -35.96490782	     11.40788854	     96.04567267	     45.01013147	      0.00000000	      0.00000000	    -43.23847489	    -37.96277623	     -5.94685733	     73.73701597	     45.01013147	      0.00000000	      0.00000000
      3.66000000	    -14.02212968	      6.24970739	     -0.40206806	     -0.25938424	      0.88486729	     -0.91376270	     42.39528240	    -23.77920449	    -12.61715114	     55.14712424	      0.96249889	     11.48211511	      0.00000000	      0.00000000	     37.16289963	    -13.61334138	    -17.89690786	     48.78704743	      0.85149461	      6.35325702	      0.00000000	      0.00000000	    -16.83704279	     -8.09350812	     -3.73555859	    -33.10253650	    -36.08105960	     10.30396664	     97.26018855	     45.00724017	      0.00000000	      0.00000000	    -44.86493978	    -38.11424191	     -7.27365027	     73.87944565	     45.00724017	      0.00000000	      0.00000000
      3.66500000	    -13.48342013	      6.81679953	     -0.46417466	     -0.25438000	      0.89944509	     -0.91447134	     40.04340213	    -24.03730311	    -12.88438105	     51.85583038	      0.90505498	      8.68970916	      0.00000000	      0.00000000	     34.37528916	    -12.32464648	    -18.17595779	     44.50757795	      0.77680378	      5.84905884	      0.00000000	      0.00000000	    -16.16380962	     -8.64193335	     -3.80047050	    -33.21582385	    -36.04057082	     10.20774906	     97.40068586	     45.00687631	      0.00000000	      0.00000000	    -44.95783188	    -38.09109804	     -7.47010001	     73.90009418	     45.00687631	      0.00000000	      0.00000000
      3.67000000	    -12.02155337	      5.67736630	      0.00324601	     -0.24733508	      0.91637324	     -0.91452756	     35.22060232	    -23.09397323	    -15.74481747	     47.53277486	      0.82960342	      5.50634295	      0.00000000	      0.00000000	     30.93240390	    -12.59344438	    -17.72970721	     40.57152338	      0.70810667	      0.97126200	      0.00000000	      0.00000000	    -16.38843921	     -7.25545321	     -3.96244611	    -33.67188443	    -35.95263991	      9.62956694	     97.58992638	     45.00487242	      0.00000000	      0.00000000	    -44.86916882	    -37.74781342	     -8.56722974	     74.02876415	     45.00487242	      0.00000000	      0.00000000
      3.67500000	    -10.98484635	      5.27485275	      0.02853749	     -0.24145906	      0.93295477	     -0.91468069	     31.48870046	    -22.27980005	    -16.96097100	     43.11822501	      0.75255499	      1.79664572	      0.00000000	      0.00000000	     27.60469795	    -12.24152813	    -17.63881395	     36.09479968	      0.62997310	      0.32851781	      0.00000000	      0.00000000	    -16.29216214	     -6.83372714	     -3.90106783	    -33.79385728	    -35.89810701	      9.64099080	     97.56856729	     45.00465328	      0.00000000	      0.00000000	    -44.97715970	    -37.79212715	     -8.71027239	     74.04474084	     45.00465328	      0.00000000	      0.00000000
      3.68000000	    -10.23436533	      4.65229627	      0.41136019	     -0.23586367	      0.94946610	     -0.91548048	     27.81186702	    -21.29082339	    -18.43943635	     38.32156418	      0.66883747	     -2.47976190	      0.00000000	      0.00000000	     24.71620010	    -11.92544673	    -16.75453537	     31.67584082	      0.55284772	     -5.93693490	      0.00000000	      0.00000000	    -15.84599862	     -5.98236145	     -3.89359786	    -33.99449344	    -35.87422946	      9.33461758	     97.02086540	     45.00306971	      0.00000000	      0.00000000	    -44.29246684	    -37.37728519	     -9.61287708	     74.17761149	     45.00306971	      0.00000000	      0.00000000
      3.68500000	     -9.50272013	      4.11602140	      0.45705302	     -0.23054977	      0.96631516	     -0.91562750	     24.36467451	    -19.98154712	    -18.96004376	     33.21578163	      0.57972475	     -7.48988254	      0.00000000	      0.00000000	     21.74405892	    -11.70743436	    -16.25738148	     27.05356666	      0.47217381	     -6.77774252	      0.00000000	      0.00000000	    -15.54064916	     -5.36595762	     -3.81372267	    -34.07723840	    -35.78946222	      9.37734835	     96.93187263	     45.00290731	      0.00000000	      0.00000000	    -44.34124369	    -37.39974629	     -9.71472329	     74.19355646	     45.00290731	      0.00000000	      0.00000000
